<svg id="Layer_1" data-name="Layer 1" xmlns="http://www.w3.org/2000/svg" viewBox="0 0 868.59 806.56"><defs><style>.cls-1{fill:#fff;}</style></defs><title>DrawShapeIcon</title><path d="M562,655.39c-.07,136.73-111.32,247.88-248.11,247.89-137.19,0-248.38-111.46-248.16-248.8.21-136.6,111.69-247.55,248.59-247.41C451,407.21,562.05,518.56,562,655.39Zm-61.75.15c.1-102.9-83-186.52-185.54-186.73-103.46-.22-187.14,82.91-187.24,186-.09,102.9,83,186.51,185.54,186.73C416.45,841.76,500.14,758.62,500.23,655.54Z" transform="translate(-65.71 -96.72)"/><path d="M587.75,717.08c2.33-20.91,4.54-40.72,6.88-61.6h255L665.33,341.9,559.18,518.72c-1.71-2-3.11-3.49-4.29-5.11-10.42-14.35-20.58-28.91-31.36-43-3-3.94-3.64-6.43-1-10.82,38.69-64.16,77.06-128.52,115.79-192.66,13.91-23,41.52-22.15,55.48,1.57Q776.62,409.4,859.25,550.18c22.74,38.7,45.33,77.49,68.32,116.05,7,11.71,9.69,23.23,2.42,35.54-7,11.88-18,15.43-31.28,15.4q-150.32-.25-300.64-.09Z" transform="translate(-65.71 -96.72)"/><path d="M562.23,328.74V159H251.88V381.15l-61.54,21.79c-.15-2.78-.46-5.81-.46-8.83q0-130.86,0-261.72,0-35.64,35.85-35.66,181.28,0,362.57,0,35.75,0,35.77,35.73c0,31.67.17,63.33-.18,95,0,4-2.23,8.31-4.33,12-3,5.28-7.22,9.9-10.38,15.13-15,24.83-29.9,49.77-44.83,74.67Z" transform="translate(-65.71 -96.72)"/><path class="cls-1" d="M500.23,655.54c-.09,103.08-83.78,186.22-187.24,186-102.55-.22-185.63-83.83-185.54-186.73.1-103.09,83.78-186.22,187.24-186C417.25,469,500.33,552.64,500.23,655.54Z" transform="translate(-65.71 -96.72)"/></svg>