<?xml version="1.0" encoding="utf-8"?>
<!-- Generator: Adobe Illustrator 24.0.2, SVG Export Plug-In . SVG Version: 6.00 Build 0)  -->
<svg version="1.1" id="icon" xmlns="http://www.w3.org/2000/svg" xmlns:xlink="http://www.w3.org/1999/xlink" x="0px" y="0px"
	 viewBox="0 0 64 64" style="enable-background:new 0 0 64 64;" xml:space="preserve">
<style type="text/css">
	.st0{fill:#231F20;}
	.st1{fill:none;}
	.st2{font-family:'SegoeUI-Semibold';}
	.st3{font-size:16px;}
</style>
<path class="st0" d="M50,32c0,1.6-0.2,3.2-0.7,4.8s-1.1,3-1.9,4.4s-1.8,2.6-2.9,3.7s-2.4,2.1-3.9,2.9h4.8V50h-9v-9h2.3v5.2
	c1.4-0.6,2.6-1.5,3.7-2.5s2.1-2.1,2.8-3.3s1.4-2.6,1.8-4s0.6-2.9,0.6-4.4c0-1.4-0.2-2.8-0.6-4.2s-0.9-2.6-1.6-3.8s-1.5-2.2-2.5-3.2
	s-2-1.8-3.2-2.5s-2.4-1.2-3.8-1.6s-2.7-0.6-4.2-0.6s-2.8,0.2-4.2,0.6s-2.6,0.9-3.8,1.6s-2.2,1.5-3.2,2.5s-1.8,2-2.5,3.2
	s-1.2,2.4-1.6,3.8s-0.6,2.7-0.6,4.2c0,1.8,0.3,3.5,0.9,5.1s1.4,3.1,2.4,4.4s2.2,2.5,3.6,3.5s3,1.7,4.7,2.2l-0.6,2.2
	c-1.9-0.5-3.7-1.4-5.3-2.5s-3-2.4-4.2-4s-2.1-3.2-2.7-5.1S14,34,14,32c0-1.7,0.2-3.2,0.6-4.8s1-3,1.8-4.3s1.7-2.6,2.8-3.6
	s2.3-2,3.6-2.8s2.8-1.4,4.3-1.8S30.3,14,32,14c1.7,0,3.2,0.2,4.8,0.6s3,1,4.3,1.8s2.6,1.7,3.6,2.8s2,2.3,2.8,3.6s1.4,2.8,1.8,4.3
	S50,30.3,50,32z"/>
<rect x="21.4" y="25.8" class="st1" width="24.6" height="12.5"/>
<text transform="matrix(1 0 0 1 21.3672 37.6001)" class="st2 st3">45°</text>
</svg>
