<svg id="icon" xmlns="http://www.w3.org/2000/svg" viewBox="0 0 36 36"><defs><style>.cls-1{fill:#231f20;}</style></defs><title>Rotate45</title><path class="cls-1" d="M50,32a17.78,17.78,0,0,1-.65,4.78,18.35,18.35,0,0,1-1.85,4.37,18.12,18.12,0,0,1-2.93,3.73,17.56,17.56,0,0,1-3.89,2.87H45.5V50h-9V41h2.25v5.22a15,15,0,0,0,3.72-2.46,16.18,16.18,0,0,0,2.84-3.35,15.89,15.89,0,0,0,1.81-4,15.78,15.78,0,0,0,.07-8.58,15.36,15.36,0,0,0-1.59-3.77,16.21,16.21,0,0,0-2.47-3.19,15.93,15.93,0,0,0-3.19-2.47,16.28,16.28,0,0,0-3.76-1.59,15.84,15.84,0,0,0-8.35,0,15.79,15.79,0,0,0-11,11A15.6,15.6,0,0,0,16.25,32a15.26,15.26,0,0,0,.85,5.08,16,16,0,0,0,2.39,4.45A16.23,16.23,0,0,0,23.13,45a15.23,15.23,0,0,0,4.67,2.17l-.6,2.16a17,17,0,0,1-5.34-2.47,18.36,18.36,0,0,1-4.18-4A18.11,18.11,0,0,1,15,37.81a18,18,0,0,1-.33-10.59,18.28,18.28,0,0,1,1.81-4.31,18.07,18.07,0,0,1,6.46-6.46,18.38,18.38,0,0,1,4.3-1.81,18.21,18.21,0,0,1,9.57,0,18.28,18.28,0,0,1,4.31,1.81,18.07,18.07,0,0,1,6.46,6.46,18.28,18.28,0,0,1,1.81,4.31A17.67,17.67,0,0,1,50,32Z" transform="translate(-14 -14)"/><path d="M28.6,26.4v7.23h1.67v1.51H28.6V37.6H26.84V35.14H21.77V33.62q.69-.78,1.41-1.68c.49-.6.95-1.22,1.39-1.84s.86-1.26,1.24-1.89a16.94,16.94,0,0,0,1-1.81Zm-1.76,7.23v-4.7a25.47,25.47,0,0,1-1.68,2.67c-.55.76-1.07,1.44-1.56,2Z" transform="translate(-14 -14)"/><path d="M31.8,37.34V35.6a4,4,0,0,0,2.23.74,2.78,2.78,0,0,0,1.84-.58,1.92,1.92,0,0,0,.69-1.55,1.73,1.73,0,0,0-.7-1.48,3.31,3.31,0,0,0-2-.54c-.3,0-.92,0-1.84.1l.4-5.89h5.52v1.54h-4l-.19,2.81,1,0a3.85,3.85,0,0,1,2.75.91,3.25,3.25,0,0,1,1,2.5A3.43,3.43,0,0,1,37.3,36.8a4.39,4.39,0,0,1-3.06,1A5,5,0,0,1,31.8,37.34Z" transform="translate(-14 -14)"/><path d="M42.53,30.6A2.08,2.08,0,0,1,41,30a2.12,2.12,0,0,1-.64-1.56A2.05,2.05,0,0,1,41,26.87a2.09,2.09,0,0,1,1.54-.63,2.15,2.15,0,0,1,1.56.63,2.06,2.06,0,0,1,.65,1.53A2.16,2.16,0,0,1,44.08,30,2.1,2.1,0,0,1,42.53,30.6Zm0-3.32a1.09,1.09,0,0,0-.8.33,1.07,1.07,0,0,0-.33.79,1.17,1.17,0,0,0,.32.82,1.05,1.05,0,0,0,.8.34,1.1,1.1,0,0,0,.8-.34,1.15,1.15,0,0,0,.34-.82,1.07,1.07,0,0,0-.34-.8A1.1,1.1,0,0,0,42.53,27.28Z" transform="translate(-14 -14)"/></svg>