<svg id="Layer_1" data-name="Layer 1" xmlns="http://www.w3.org/2000/svg" viewBox="0 0 684.27 635.2"><defs><style>.cls-1,.cls-2{fill:none;stroke:#000;stroke-linecap:round;stroke-miterlimit:10;}.cls-1{stroke-width:50px;}.cls-2{stroke-width:75px;}</style></defs><title>ShapeParabolaWithFocalPoint</title><path class="cls-1" d="M182.87,207.4c8.88,89.38,27.67,215.76,70,345.63,7.28,22.3,37.41,112.06,99.22,174.64,26.59,26.92,49.79,39.44,61.87,45.19a203.34,203.34,0,0,0,82.88,19.54" transform="translate(-157.87 -182.4)"/><path class="cls-1" d="M817.13,207.6c-8.88,89.38-27.67,215.76-70,345.63-7.28,22.3-37.41,112.06-99.22,174.64-26.59,26.92-49.79,39.44-61.87,45.19a203.34,203.34,0,0,1-82.88,19.54" transform="translate(-157.87 -182.4)"/><line class="cls-2" x1="342.08" y1="417.65" x2="342.18" y2="417.55"/></svg>