<svg id="Layer_1" data-name="Layer 1" xmlns="http://www.w3.org/2000/svg" viewBox="0 0 777.7 772.73"><defs><style>.cls-1{fill:none;stroke:#000;stroke-linecap:round;stroke-miterlimit:10;stroke-width:50px;}</style></defs><title>ShapeHyperbola</title><path class="cls-1" d="M136.54,861.37a395.1,395.1,0,0,0,80-47c38.07-28.91,61.25-57.47,68-66a351.08,351.08,0,0,0,46-76c14.86-34.16,20.1-62,25-89a523.22,523.22,0,0,0,8.31-82.87" transform="translate(-111.15 -113.63)"/><path class="cls-1" d="M136.15,138.63a395.1,395.1,0,0,1,80,47c38.07,28.91,61.26,57.47,68,66a350.65,350.65,0,0,1,46,76c14.86,34.16,20.1,62,25,89a522,522,0,0,1,8.31,82.87" transform="translate(-111.15 -113.63)"/><path class="cls-1" d="M863.46,861.37a395.1,395.1,0,0,1-80-47c-38.07-28.91-61.25-57.47-68-66a351.08,351.08,0,0,1-46-76c-14.86-34.16-20.1-62-25-89a523.22,523.22,0,0,1-8.31-82.87" transform="translate(-111.15 -113.63)"/><path class="cls-1" d="M863.85,138.63a395.1,395.1,0,0,0-80,47c-38.07,28.91-61.26,57.47-68,66a350.65,350.65,0,0,0-46,76c-14.86,34.16-20.1,62-25,89a522,522,0,0,0-8.31,82.87" transform="translate(-111.15 -113.63)"/></svg>