<svg id="Layer_1" data-name="Layer 1" xmlns="http://www.w3.org/2000/svg" viewBox="0 0 579.5 850"><defs><style>.cls-1,.cls-2{fill:none;stroke:#000;stroke-linecap:round;stroke-miterlimit:10;stroke-width:50px;}.cls-2{stroke-dasharray:100.42 100.42;}</style></defs><title>ShapeCylinder</title><ellipse class="cls-1" cx="290" cy="125" rx="264.5" ry="100"/><path class="cls-1" d="M764.5,800c0,55.23-118.42,100-264.5,100S235.5,855.23,235.5,800" transform="translate(-210 -75)"/><path class="cls-1" d="M235.5,800c0-15,8.67-29.13,24.22-41.86" transform="translate(-210 -75)"/><path class="cls-2" d="M350.75,717.43C393.23,706.43,444.63,700,500,700c78.18,0,148.44,12.82,196.87,33.21" transform="translate(-210 -75)"/><path class="cls-1" d="M740.28,758.14c15.55,12.73,24.22,26.91,24.22,41.86" transform="translate(-210 -75)"/><line class="cls-1" x1="25" y1="125" x2="25" y2="725"/><line class="cls-1" x1="554" y1="125" x2="554" y2="725"/></svg>